<svg xmlns="http://www.w3.org/2000/svg" viewBox="-8.7 -8.440367594528116 17.4 16.880735189056235" role="img" aria-label="borghese exterior"><rect x="-20" y="-20" width="40" height="40" fill="#08121c"/><polygon points="4.692,3.250 1.089,7.704 -3.626,3.892" fill="#dbd3be" stroke="#dbd3be" stroke-width=".003"/><polygon points="7.964,1.494 5.813,4.155 4.692,3.250" fill="#dbd3be" stroke="#dbd3be" stroke-width=".003"/><polygon points="4.692,3.250 -3.626,3.892 -5.926,-2.138" fill="#dbd3be" stroke="#dbd3be" stroke-width=".003"/><polygon points="-3.626,3.892 -7.964,0.382 -5.926,-2.138" fill="#dbd3be" stroke="#dbd3be" stroke-width=".003"/><polygon points="-5.591,-5.009 7.964,1.494 4.692,3.250" fill="#dbd3be" stroke="#dbd3be" stroke-width=".003"/><polygon points="4.692,3.250 -5.926,-2.138 -4.391,-4.038" fill="#dbd3be" stroke="#dbd3be" stroke-width=".003"/><polygon points="-4.391,-4.038 -5.591,-5.009 4.692,3.250" fill="#dbd3be" stroke="#dbd3be" stroke-width=".003"/><polygon points="-5.926,-2.138 -5.758,-2.348 -4.391,-4.038" fill="#dbd3be" stroke="#dbd3be" stroke-width=".003"/><polygon points="-5.591,-5.009 -3.413,-7.704 7.964,1.494" fill="#dbd3be" stroke="#dbd3be" stroke-width=".003"/><polygon points="-7.562,-0.086 -7.590,-0.109 -7.319,-0.387" fill="#27363d" stroke="#27363d" stroke-width=".003"/><polygon points="-7.590,-0.109 -7.347,-0.409 -7.319,-0.387" fill="#27363d" stroke="#27363d" stroke-width=".003"/><polygon points="-6.543,-1.347 -6.571,-1.369 -6.300,-1.647" fill="#27363d" stroke="#27363d" stroke-width=".003"/><polygon points="-6.571,-1.369 -6.328,-1.670 -6.300,-1.647" fill="#27363d" stroke="#27363d" stroke-width=".003"/><polygon points="-5.182,-3.031 -5.210,-3.054 -4.939,-3.331" fill="#27363d" stroke="#27363d" stroke-width=".003"/><polygon points="-5.210,-3.054 -4.967,-3.354 -4.939,-3.331" fill="#27363d" stroke="#27363d" stroke-width=".003"/><polygon points="-5.154,-5.521 -5.182,-5.544 -4.911,-5.821" fill="#27363d" stroke="#27363d" stroke-width=".003"/><polygon points="-5.182,-5.544 -4.939,-5.844 -4.911,-5.821" fill="#27363d" stroke="#27363d" stroke-width=".003"/><polygon points="-4.065,-6.869 -4.093,-6.892 -3.822,-7.169" fill="#27363d" stroke="#27363d" stroke-width=".003"/><polygon points="-4.093,-6.892 -3.850,-7.192 -3.822,-7.169" fill="#27363d" stroke="#27363d" stroke-width=".003"/><polygon points="-2.942,-7.301 -2.920,-7.329 -2.642,-7.058" fill="#27363d" stroke="#27363d" stroke-width=".003"/><polygon points="-2.920,-7.329 -2.619,-7.086 -2.642,-7.058" fill="#27363d" stroke="#27363d" stroke-width=".003"/><polygon points="-1.678,-6.279 -1.655,-6.307 -1.378,-6.036" fill="#27363d" stroke="#27363d" stroke-width=".003"/><polygon points="-1.655,-6.307 -1.355,-6.064 -1.378,-6.036" fill="#27363d" stroke="#27363d" stroke-width=".003"/><polygon points="-0.414,-5.257 -0.391,-5.285 -0.114,-5.014" fill="#27363d" stroke="#27363d" stroke-width=".003"/><polygon points="-0.391,-5.285 -0.091,-5.042 -0.114,-5.014" fill="#27363d" stroke="#27363d" stroke-width=".003"/><polygon points="0.850,-4.235 0.873,-4.263 1.150,-3.992" fill="#27363d" stroke="#27363d" stroke-width=".003"/><polygon points="0.873,-4.263 1.173,-4.020 1.150,-3.992" fill="#27363d" stroke="#27363d" stroke-width=".003"/><polygon points="2.114,-3.213 2.137,-3.241 2.414,-2.970" fill="#27363d" stroke="#27363d" stroke-width=".003"/><polygon points="2.137,-3.241 2.437,-2.998 2.414,-2.970" fill="#27363d" stroke="#27363d" stroke-width=".003"/><polygon points="3.378,-2.191 3.401,-2.219 3.678,-1.948" fill="#27363d" stroke="#27363d" stroke-width=".003"/><polygon points="3.401,-2.219 3.701,-1.976 3.678,-1.948" fill="#27363d" stroke="#27363d" stroke-width=".003"/><polygon points="4.642,-1.169 4.665,-1.197 4.943,-0.926" fill="#27363d" stroke="#27363d" stroke-width=".003"/><polygon points="4.665,-1.197 4.965,-0.954 4.943,-0.926" fill="#27363d" stroke="#27363d" stroke-width=".003"/><polygon points="5.906,-0.146 5.929,-0.174 6.207,0.096" fill="#27363d" stroke="#27363d" stroke-width=".003"/><polygon points="5.929,-0.174 6.229,0.068 6.207,0.096" fill="#27363d" stroke="#27363d" stroke-width=".003"/><polygon points="7.171,0.876 7.193,0.848 7.471,1.118" fill="#27363d" stroke="#27363d" stroke-width=".003"/><polygon points="7.193,0.848 7.493,1.090 7.471,1.118" fill="#27363d" stroke="#27363d" stroke-width=".003"/><polygon points="7.534,1.998 7.562,2.020 7.291,2.298" fill="#27363d" stroke="#27363d" stroke-width=".003"/><polygon points="7.562,2.020 7.319,2.321 7.291,2.298" fill="#27363d" stroke="#27363d" stroke-width=".003"/><polygon points="6.458,3.328 6.486,3.351 6.215,3.629" fill="#27363d" stroke="#27363d" stroke-width=".003"/><polygon points="6.486,3.351 6.244,3.651 6.215,3.629" fill="#27363d" stroke="#27363d" stroke-width=".003"/><polygon points="4.199,3.831 4.227,3.854 3.956,4.131" fill="#27363d" stroke="#27363d" stroke-width=".003"/><polygon points="4.227,3.854 3.984,4.154 3.956,4.131" fill="#27363d" stroke="#27363d" stroke-width=".003"/><polygon points="2.998,5.316 3.026,5.338 2.755,5.616" fill="#27363d" stroke="#27363d" stroke-width=".003"/><polygon points="3.026,5.338 2.783,5.639 2.755,5.616" fill="#27363d" stroke="#27363d" stroke-width=".003"/><polygon points="1.797,6.801 1.825,6.823 1.554,7.101" fill="#27363d" stroke="#27363d" stroke-width=".003"/><polygon points="1.825,6.823 1.582,7.123 1.554,7.101" fill="#27363d" stroke="#27363d" stroke-width=".003"/><polygon points="0.661,7.335 0.639,7.363 0.361,7.092" fill="#27363d" stroke="#27363d" stroke-width=".003"/><polygon points="0.639,7.363 0.338,7.120 0.361,7.092" fill="#27363d" stroke="#27363d" stroke-width=".003"/><polygon points="-0.518,6.382 -0.540,6.410 -0.818,6.139" fill="#27363d" stroke="#27363d" stroke-width=".003"/><polygon points="-0.540,6.410 -0.840,6.167 -0.818,6.139" fill="#27363d" stroke="#27363d" stroke-width=".003"/><polygon points="-1.696,5.429 -1.719,5.457 -1.997,5.186" fill="#27363d" stroke="#27363d" stroke-width=".003"/><polygon points="-1.719,5.457 -2.019,5.214 -1.997,5.186" fill="#27363d" stroke="#27363d" stroke-width=".003"/><polygon points="-2.875,4.476 -2.898,4.504 -3.175,4.233" fill="#27363d" stroke="#27363d" stroke-width=".003"/><polygon points="-2.898,4.504 -3.198,4.261 -3.175,4.233" fill="#27363d" stroke="#27363d" stroke-width=".003"/><polygon points="-4.188,3.414 -4.210,3.442 -4.488,3.171" fill="#27363d" stroke="#27363d" stroke-width=".003"/><polygon points="-4.210,3.442 -4.510,3.199 -4.488,3.171" fill="#27363d" stroke="#27363d" stroke-width=".003"/><polygon points="-5.634,2.244 -5.656,2.272 -5.934,2.002" fill="#27363d" stroke="#27363d" stroke-width=".003"/><polygon points="-5.656,2.272 -5.956,2.030 -5.934,2.002" fill="#27363d" stroke="#27363d" stroke-width=".003"/><polygon points="-7.080,1.075 -7.102,1.103 -7.380,0.832" fill="#27363d" stroke="#27363d" stroke-width=".003"/><polygon points="-7.102,1.103 -7.402,0.860 -7.380,0.832" fill="#27363d" stroke="#27363d" stroke-width=".003"/><polygon points="-7.590,-0.109 -7.562,-0.086 -7.347,-0.409" fill="#27363d" stroke="#27363d" stroke-width=".003"/><polygon points="-7.562,-0.086 -7.319,-0.387 -7.347,-0.409" fill="#27363d" stroke="#27363d" stroke-width=".003"/><polygon points="-6.571,-1.369 -6.543,-1.347 -6.328,-1.670" fill="#27363d" stroke="#27363d" stroke-width=".003"/><polygon points="-6.543,-1.347 -6.300,-1.647 -6.328,-1.670" fill="#27363d" stroke="#27363d" stroke-width=".003"/><polygon points="-5.210,-3.054 -5.182,-3.031 -4.967,-3.354" fill="#27363d" stroke="#27363d" stroke-width=".003"/><polygon points="-5.182,-3.031 -4.939,-3.331 -4.967,-3.354" fill="#27363d" stroke="#27363d" stroke-width=".003"/><polygon points="-5.182,-5.544 -5.154,-5.521 -4.939,-5.844" fill="#27363d" stroke="#27363d" stroke-width=".003"/><polygon points="-5.154,-5.521 -4.911,-5.821 -4.939,-5.844" fill="#27363d" stroke="#27363d" stroke-width=".003"/><polygon points="-4.093,-6.892 -4.065,-6.869 -3.850,-7.192" fill="#27363d" stroke="#27363d" stroke-width=".003"/><polygon points="-4.065,-6.869 -3.822,-7.169 -3.850,-7.192" fill="#27363d" stroke="#27363d" stroke-width=".003"/><polygon points="-2.920,-7.329 -2.942,-7.301 -2.619,-7.086" fill="#27363d" stroke="#27363d" stroke-width=".003"/><polygon points="-2.942,-7.301 -2.642,-7.058 -2.619,-7.086" fill="#27363d" stroke="#27363d" stroke-width=".003"/><polygon points="-1.655,-6.307 -1.678,-6.279 -1.355,-6.064" fill="#27363d" stroke="#27363d" stroke-width=".003"/><polygon points="-1.678,-6.279 -1.378,-6.036 -1.355,-6.064" fill="#27363d" stroke="#27363d" stroke-width=".003"/><polygon points="-0.391,-5.285 -0.414,-5.257 -0.091,-5.042" fill="#27363d" stroke="#27363d" stroke-width=".003"/><polygon points="-0.414,-5.257 -0.114,-5.014 -0.091,-5.042" fill="#27363d" stroke="#27363d" stroke-width=".003"/><polygon points="0.873,-4.263 0.850,-4.235 1.173,-4.020" fill="#27363d" stroke="#27363d" stroke-width=".003"/><polygon points="0.850,-4.235 1.150,-3.992 1.173,-4.020" fill="#27363d" stroke="#27363d" stroke-width=".003"/><polygon points="2.137,-3.241 2.114,-3.213 2.437,-2.998" fill="#27363d" stroke="#27363d" stroke-width=".003"/><polygon points="2.114,-3.213 2.414,-2.970 2.437,-2.998" fill="#27363d" stroke="#27363d" stroke-width=".003"/><polygon points="3.401,-2.219 3.378,-2.191 3.701,-1.976" fill="#27363d" stroke="#27363d" stroke-width=".003"/><polygon points="3.378,-2.191 3.678,-1.948 3.701,-1.976" fill="#27363d" stroke="#27363d" stroke-width=".003"/><polygon points="4.665,-1.197 4.642,-1.169 4.965,-0.954" fill="#27363d" stroke="#27363d" stroke-width=".003"/><polygon points="4.642,-1.169 4.943,-0.926 4.965,-0.954" fill="#27363d" stroke="#27363d" stroke-width=".003"/><polygon points="5.929,-0.174 5.906,-0.146 6.229,0.068" fill="#27363d" stroke="#27363d" stroke-width=".003"/><polygon points="5.906,-0.146 6.207,0.096 6.229,0.068" fill="#27363d" stroke="#27363d" stroke-width=".003"/><polygon points="7.193,0.848 7.171,0.876 7.493,1.090" fill="#27363d" stroke="#27363d" stroke-width=".003"/><polygon points="7.171,0.876 7.471,1.118 7.493,1.090" fill="#27363d" stroke="#27363d" stroke-width=".003"/><polygon points="7.562,2.020 7.534,1.998 7.319,2.321" fill="#27363d" stroke="#27363d" stroke-width=".003"/><polygon points="7.534,1.998 7.291,2.298 7.319,2.321" fill="#27363d" stroke="#27363d" stroke-width=".003"/><polygon points="6.486,3.351 6.458,3.328 6.244,3.651" fill="#27363d" stroke="#27363d" stroke-width=".003"/><polygon points="6.458,3.328 6.215,3.629 6.244,3.651" fill="#27363d" stroke="#27363d" stroke-width=".003"/><polygon points="4.227,3.854 4.199,3.831 3.984,4.154" fill="#27363d" stroke="#27363d" stroke-width=".003"/><polygon points="4.199,3.831 3.956,4.131 3.984,4.154" fill="#27363d" stroke="#27363d" stroke-width=".003"/><polygon points="3.026,5.338 2.998,5.316 2.783,5.639" fill="#27363d" stroke="#27363d" stroke-width=".003"/><polygon points="2.998,5.316 2.755,5.616 2.783,5.639" fill="#27363d" stroke="#27363d" stroke-width=".003"/><polygon points="1.825,6.823 1.797,6.801 1.582,7.123" fill="#27363d" stroke="#27363d" stroke-width=".003"/><polygon points="1.797,6.801 1.554,7.101 1.582,7.123" fill="#27363d" stroke="#27363d" stroke-width=".003"/><polygon points="0.639,7.363 0.661,7.335 0.338,7.120" fill="#27363d" stroke="#27363d" stroke-width=".003"/><polygon points="0.661,7.335 0.361,7.092 0.338,7.120" fill="#27363d" stroke="#27363d" stroke-width=".003"/><polygon points="-0.540,6.410 -0.518,6.382 -0.840,6.167" fill="#27363d" stroke="#27363d" stroke-width=".003"/><polygon points="-0.518,6.382 -0.818,6.139 -0.840,6.167" fill="#27363d" stroke="#27363d" stroke-width=".003"/><polygon points="-1.719,5.457 -1.696,5.429 -2.019,5.214" fill="#27363d" stroke="#27363d" stroke-width=".003"/><polygon points="-1.696,5.429 -1.997,5.186 -2.019,5.214" fill="#27363d" stroke="#27363d" stroke-width=".003"/><polygon points="-2.898,4.504 -2.875,4.476 -3.198,4.261" fill="#27363d" stroke="#27363d" stroke-width=".003"/><polygon points="-2.875,4.476 -3.175,4.233 -3.198,4.261" fill="#27363d" stroke="#27363d" stroke-width=".003"/><polygon points="-4.210,3.442 -4.188,3.414 -4.510,3.199" fill="#27363d" stroke="#27363d" stroke-width=".003"/><polygon points="-4.188,3.414 -4.488,3.171 -4.510,3.199" fill="#27363d" stroke="#27363d" stroke-width=".003"/><polygon points="-5.656,2.272 -5.634,2.244 -5.956,2.030" fill="#27363d" stroke="#27363d" stroke-width=".003"/><polygon points="-5.634,2.244 -5.934,2.002 -5.956,2.030" fill="#27363d" stroke="#27363d" stroke-width=".003"/><polygon points="-7.102,1.103 -7.080,1.075 -7.402,0.860" fill="#27363d" stroke="#27363d" stroke-width=".003"/><polygon points="-7.080,1.075 -7.380,0.832 -7.402,0.860" fill="#27363d" stroke="#27363d" stroke-width=".003"/><polygon points="-7.562,-0.086 -7.590,-0.109 -7.319,-0.387" fill="#27363d" stroke="#27363d" stroke-width=".003"/><polygon points="-7.590,-0.109 -7.347,-0.409 -7.319,-0.387" fill="#27363d" stroke="#27363d" stroke-width=".003"/><polygon points="-6.543,-1.347 -6.571,-1.369 -6.300,-1.647" fill="#27363d" stroke="#27363d" stroke-width=".003"/><polygon points="-6.571,-1.369 -6.328,-1.670 -6.300,-1.647" fill="#27363d" stroke="#27363d" stroke-width=".003"/><polygon points="-5.182,-3.031 -5.210,-3.054 -4.939,-3.331" fill="#27363d" stroke="#27363d" stroke-width=".003"/><polygon points="-5.210,-3.054 -4.967,-3.354 -4.939,-3.331" fill="#27363d" stroke="#27363d" stroke-width=".003"/><polygon points="-5.154,-5.521 -5.182,-5.544 -4.911,-5.821" fill="#27363d" stroke="#27363d" stroke-width=".003"/><polygon points="-5.182,-5.544 -4.939,-5.844 -4.911,-5.821" fill="#27363d" stroke="#27363d" stroke-width=".003"/><polygon points="-4.065,-6.869 -4.093,-6.892 -3.822,-7.169" fill="#27363d" stroke="#27363d" stroke-width=".003"/><polygon points="-4.093,-6.892 -3.850,-7.192 -3.822,-7.169" fill="#27363d" stroke="#27363d" stroke-width=".003"/><polygon points="-2.942,-7.301 -2.920,-7.329 -2.642,-7.058" fill="#27363d" stroke="#27363d" stroke-width=".003"/><polygon points="-2.920,-7.329 -2.619,-7.086 -2.642,-7.058" fill="#27363d" stroke="#27363d" stroke-width=".003"/><polygon points="-1.678,-6.279 -1.655,-6.307 -1.378,-6.036" fill="#27363d" stroke="#27363d" stroke-width=".003"/><polygon points="-1.655,-6.307 -1.355,-6.064 -1.378,-6.036" fill="#27363d" stroke="#27363d" stroke-width=".003"/><polygon points="-0.414,-5.257 -0.391,-5.285 -0.114,-5.014" fill="#27363d" stroke="#27363d" stroke-width=".003"/><polygon points="-0.391,-5.285 -0.091,-5.042 -0.114,-5.014" fill="#27363d" stroke="#27363d" stroke-width=".003"/><polygon points="0.850,-4.235 0.873,-4.263 1.150,-3.992" fill="#27363d" stroke="#27363d" stroke-width=".003"/><polygon points="0.873,-4.263 1.173,-4.020 1.150,-3.992" fill="#27363d" stroke="#27363d" stroke-width=".003"/><polygon points="2.114,-3.213 2.137,-3.241 2.414,-2.970" fill="#27363d" stroke="#27363d" stroke-width=".003"/><polygon points="2.137,-3.241 2.437,-2.998 2.414,-2.970" fill="#27363d" stroke="#27363d" stroke-width=".003"/><polygon points="3.378,-2.191 3.401,-2.219 3.678,-1.948" fill="#27363d" stroke="#27363d" stroke-width=".003"/><polygon points="3.401,-2.219 3.701,-1.976 3.678,-1.948" fill="#27363d" stroke="#27363d" stroke-width=".003"/><polygon points="4.642,-1.169 4.665,-1.197 4.943,-0.926" fill="#27363d" stroke="#27363d" stroke-width=".003"/><polygon points="4.665,-1.197 4.965,-0.954 4.943,-0.926" fill="#27363d" stroke="#27363d" stroke-width=".003"/><polygon points="5.906,-0.146 5.929,-0.174 6.207,0.096" fill="#27363d" stroke="#27363d" stroke-width=".003"/><polygon points="5.929,-0.174 6.229,0.068 6.207,0.096" fill="#27363d" stroke="#27363d" stroke-width=".003"/><polygon points="7.171,0.876 7.193,0.848 7.471,1.118" fill="#27363d" stroke="#27363d" stroke-width=".003"/><polygon points="7.193,0.848 7.493,1.090 7.471,1.118" fill="#27363d" stroke="#27363d" stroke-width=".003"/><polygon points="7.534,1.998 7.562,2.020 7.291,2.298" fill="#27363d" stroke="#27363d" stroke-width=".003"/><polygon points="7.562,2.020 7.319,2.321 7.291,2.298" fill="#27363d" stroke="#27363d" stroke-width=".003"/><polygon points="6.458,3.328 6.486,3.351 6.215,3.629" fill="#27363d" stroke="#27363d" stroke-width=".003"/><polygon points="6.486,3.351 6.244,3.651 6.215,3.629" fill="#27363d" stroke="#27363d" stroke-width=".003"/><polygon points="4.199,3.831 4.227,3.854 3.956,4.131" fill="#27363d" stroke="#27363d" stroke-width=".003"/><polygon points="4.227,3.854 3.984,4.154 3.956,4.131" fill="#27363d" stroke="#27363d" stroke-width=".003"/><polygon points="2.998,5.316 3.026,5.338 2.755,5.616" fill="#27363d" stroke="#27363d" stroke-width=".003"/><polygon points="3.026,5.338 2.783,5.639 2.755,5.616" fill="#27363d" stroke="#27363d" stroke-width=".003"/><polygon points="1.797,6.801 1.825,6.823 1.554,7.101" fill="#27363d" stroke="#27363d" stroke-width=".003"/><polygon points="1.825,6.823 1.582,7.123 1.554,7.101" fill="#27363d" stroke="#27363d" stroke-width=".003"/><polygon points="0.661,7.335 0.639,7.363 0.361,7.092" fill="#27363d" stroke="#27363d" stroke-width=".003"/><polygon points="0.639,7.363 0.338,7.120 0.361,7.092" fill="#27363d" stroke="#27363d" stroke-width=".003"/><polygon points="-0.518,6.382 -0.540,6.410 -0.818,6.139" fill="#27363d" stroke="#27363d" stroke-width=".003"/><polygon points="-0.540,6.410 -0.840,6.167 -0.818,6.139" fill="#27363d" stroke="#27363d" stroke-width=".003"/><polygon points="-1.696,5.429 -1.719,5.457 -1.997,5.186" fill="#27363d" stroke="#27363d" stroke-width=".003"/><polygon points="-1.719,5.457 -2.019,5.214 -1.997,5.186" fill="#27363d" stroke="#27363d" stroke-width=".003"/><polygon points="-2.875,4.476 -2.898,4.504 -3.175,4.233" fill="#27363d" stroke="#27363d" stroke-width=".003"/><polygon points="-2.898,4.504 -3.198,4.261 -3.175,4.233" fill="#27363d" stroke="#27363d" stroke-width=".003"/><polygon points="-4.188,3.414 -4.210,3.442 -4.488,3.171" fill="#27363d" stroke="#27363d" stroke-width=".003"/><polygon points="-4.210,3.442 -4.510,3.199 -4.488,3.171" fill="#27363d" stroke="#27363d" stroke-width=".003"/><polygon points="-5.634,2.244 -5.656,2.272 -5.934,2.002" fill="#27363d" stroke="#27363d" stroke-width=".003"/><polygon points="-5.656,2.272 -5.956,2.030 -5.934,2.002" fill="#27363d" stroke="#27363d" stroke-width=".003"/><polygon points="-7.080,1.075 -7.102,1.103 -7.380,0.832" fill="#27363d" stroke="#27363d" stroke-width=".003"/><polygon points="-7.102,1.103 -7.402,0.860 -7.380,0.832" fill="#27363d" stroke="#27363d" stroke-width=".003"/><polygon points="-7.590,-0.109 -7.562,-0.086 -7.347,-0.409" fill="#27363d" stroke="#27363d" stroke-width=".003"/><polygon points="-7.562,-0.086 -7.319,-0.387 -7.347,-0.409" fill="#27363d" stroke="#27363d" stroke-width=".003"/><polygon points="-6.571,-1.369 -6.543,-1.347 -6.328,-1.670" fill="#27363d" stroke="#27363d" stroke-width=".003"/><polygon points="-6.543,-1.347 -6.300,-1.647 -6.328,-1.670" fill="#27363d" stroke="#27363d" stroke-width=".003"/><polygon points="-5.210,-3.054 -5.182,-3.031 -4.967,-3.354" fill="#27363d" stroke="#27363d" stroke-width=".003"/><polygon points="-5.182,-3.031 -4.939,-3.331 -4.967,-3.354" fill="#27363d" stroke="#27363d" stroke-width=".003"/><polygon points="-5.182,-5.544 -5.154,-5.521 -4.939,-5.844" fill="#27363d" stroke="#27363d" stroke-width=".003"/><polygon points="-5.154,-5.521 -4.911,-5.821 -4.939,-5.844" fill="#27363d" stroke="#27363d" stroke-width=".003"/><polygon points="-4.093,-6.892 -4.065,-6.869 -3.850,-7.192" fill="#27363d" stroke="#27363d" stroke-width=".003"/><polygon points="-4.065,-6.869 -3.822,-7.169 -3.850,-7.192" fill="#27363d" stroke="#27363d" stroke-width=".003"/><polygon points="-2.920,-7.329 -2.942,-7.301 -2.619,-7.086" fill="#27363d" stroke="#27363d" stroke-width=".003"/><polygon points="-2.942,-7.301 -2.642,-7.058 -2.619,-7.086" fill="#27363d" stroke="#27363d" stroke-width=".003"/><polygon points="-1.655,-6.307 -1.678,-6.279 -1.355,-6.064" fill="#27363d" stroke="#27363d" stroke-width=".003"/><polygon points="-1.678,-6.279 -1.378,-6.036 -1.355,-6.064" fill="#27363d" stroke="#27363d" stroke-width=".003"/><polygon points="-0.391,-5.285 -0.414,-5.257 -0.091,-5.042" fill="#27363d" stroke="#27363d" stroke-width=".003"/><polygon points="-0.414,-5.257 -0.114,-5.014 -0.091,-5.042" fill="#27363d" stroke="#27363d" stroke-width=".003"/><polygon points="0.873,-4.263 0.850,-4.235 1.173,-4.020" fill="#27363d" stroke="#27363d" stroke-width=".003"/><polygon points="0.850,-4.235 1.150,-3.992 1.173,-4.020" fill="#27363d" stroke="#27363d" stroke-width=".003"/><polygon points="2.137,-3.241 2.114,-3.213 2.437,-2.998" fill="#27363d" stroke="#27363d" stroke-width=".003"/><polygon points="2.114,-3.213 2.414,-2.970 2.437,-2.998" fill="#27363d" stroke="#27363d" stroke-width=".003"/><polygon points="3.401,-2.219 3.378,-2.191 3.701,-1.976" fill="#27363d" stroke="#27363d" stroke-width=".003"/><polygon points="3.378,-2.191 3.678,-1.948 3.701,-1.976" fill="#27363d" stroke="#27363d" stroke-width=".003"/><polygon points="4.665,-1.197 4.642,-1.169 4.965,-0.954" fill="#27363d" stroke="#27363d" stroke-width=".003"/><polygon points="4.642,-1.169 4.943,-0.926 4.965,-0.954" fill="#27363d" stroke="#27363d" stroke-width=".003"/><polygon points="5.929,-0.174 5.906,-0.146 6.229,0.068" fill="#27363d" stroke="#27363d" stroke-width=".003"/><polygon points="5.906,-0.146 6.207,0.096 6.229,0.068" fill="#27363d" stroke="#27363d" stroke-width=".003"/><polygon points="7.193,0.848 7.171,0.876 7.493,1.090" fill="#27363d" stroke="#27363d" stroke-width=".003"/><polygon points="7.171,0.876 7.471,1.118 7.493,1.090" fill="#27363d" stroke="#27363d" stroke-width=".003"/><polygon points="7.562,2.020 7.534,1.998 7.319,2.321" fill="#27363d" stroke="#27363d" stroke-width=".003"/><polygon points="7.534,1.998 7.291,2.298 7.319,2.321" fill="#27363d" stroke="#27363d" stroke-width=".003"/><polygon points="6.486,3.351 6.458,3.328 6.244,3.651" fill="#27363d" stroke="#27363d" stroke-width=".003"/><polygon points="6.458,3.328 6.215,3.629 6.244,3.651" fill="#27363d" stroke="#27363d" stroke-width=".003"/><polygon points="4.227,3.854 4.199,3.831 3.984,4.154" fill="#27363d" stroke="#27363d" stroke-width=".003"/><polygon points="4.199,3.831 3.956,4.131 3.984,4.154" fill="#27363d" stroke="#27363d" stroke-width=".003"/><polygon points="3.026,5.338 2.998,5.316 2.783,5.639" fill="#27363d" stroke="#27363d" stroke-width=".003"/><polygon points="2.998,5.316 2.755,5.616 2.783,5.639" fill="#27363d" stroke="#27363d" stroke-width=".003"/><polygon points="1.825,6.823 1.797,6.801 1.582,7.123" fill="#27363d" stroke="#27363d" stroke-width=".003"/><polygon points="1.797,6.801 1.554,7.101 1.582,7.123" fill="#27363d" stroke="#27363d" stroke-width=".003"/><polygon points="0.639,7.363 0.661,7.335 0.338,7.120" fill="#27363d" stroke="#27363d" stroke-width=".003"/><polygon points="0.661,7.335 0.361,7.092 0.338,7.120" fill="#27363d" stroke="#27363d" stroke-width=".003"/><polygon points="-0.540,6.410 -0.518,6.382 -0.840,6.167" fill="#27363d" stroke="#27363d" stroke-width=".003"/><polygon points="-0.518,6.382 -0.818,6.139 -0.840,6.167" fill="#27363d" stroke="#27363d" stroke-width=".003"/><polygon points="-1.719,5.457 -1.696,5.429 -2.019,5.214" fill="#27363d" stroke="#27363d" stroke-width=".003"/><polygon points="-1.696,5.429 -1.997,5.186 -2.019,5.214" fill="#27363d" stroke="#27363d" stroke-width=".003"/><polygon points="-2.898,4.504 -2.875,4.476 -3.198,4.261" fill="#27363d" stroke="#27363d" stroke-width=".003"/><polygon points="-2.875,4.476 -3.175,4.233 -3.198,4.261" fill="#27363d" stroke="#27363d" stroke-width=".003"/><polygon points="-4.210,3.442 -4.188,3.414 -4.510,3.199" fill="#27363d" stroke="#27363d" stroke-width=".003"/><polygon points="-4.188,3.414 -4.488,3.171 -4.510,3.199" fill="#27363d" stroke="#27363d" stroke-width=".003"/><polygon points="-5.656,2.272 -5.634,2.244 -5.956,2.030" fill="#27363d" stroke="#27363d" stroke-width=".003"/><polygon points="-5.634,2.244 -5.934,2.002 -5.956,2.030" fill="#27363d" stroke="#27363d" stroke-width=".003"/><polygon points="-7.102,1.103 -7.080,1.075 -7.402,0.860" fill="#27363d" stroke="#27363d" stroke-width=".003"/><polygon points="-7.080,1.075 -7.380,0.832 -7.402,0.860" fill="#27363d" stroke="#27363d" stroke-width=".003"/><polygon points="-7.562,-0.086 -7.590,-0.109 -7.319,-0.387" fill="#27363d" stroke="#27363d" stroke-width=".003"/><polygon points="-7.590,-0.109 -7.347,-0.409 -7.319,-0.387" fill="#27363d" stroke="#27363d" stroke-width=".003"/><polygon points="-6.543,-1.347 -6.571,-1.369 -6.300,-1.647" fill="#27363d" stroke="#27363d" stroke-width=".003"/><polygon points="-6.571,-1.369 -6.328,-1.670 -6.300,-1.647" fill="#27363d" stroke="#27363d" stroke-width=".003"/><polygon points="-5.182,-3.031 -5.210,-3.054 -4.939,-3.331" fill="#27363d" stroke="#27363d" stroke-width=".003"/><polygon points="-5.210,-3.054 -4.967,-3.354 -4.939,-3.331" fill="#27363d" stroke="#27363d" stroke-width=".003"/><polygon points="-5.154,-5.521 -5.182,-5.544 -4.911,-5.821" fill="#27363d" stroke="#27363d" stroke-width=".003"/><polygon points="-5.182,-5.544 -4.939,-5.844 -4.911,-5.821" fill="#27363d" stroke="#27363d" stroke-width=".003"/><polygon points="-4.065,-6.869 -4.093,-6.892 -3.822,-7.169" fill="#27363d" stroke="#27363d" stroke-width=".003"/><polygon points="-4.093,-6.892 -3.850,-7.192 -3.822,-7.169" fill="#27363d" stroke="#27363d" stroke-width=".003"/><polygon points="-2.942,-7.301 -2.920,-7.329 -2.642,-7.058" fill="#27363d" stroke="#27363d" stroke-width=".003"/><polygon points="-2.920,-7.329 -2.619,-7.086 -2.642,-7.058" fill="#27363d" stroke="#27363d" stroke-width=".003"/><polygon points="-1.678,-6.279 -1.655,-6.307 -1.378,-6.036" fill="#27363d" stroke="#27363d" stroke-width=".003"/><polygon points="-1.655,-6.307 -1.355,-6.064 -1.378,-6.036" fill="#27363d" stroke="#27363d" stroke-width=".003"/><polygon points="-0.414,-5.257 -0.391,-5.285 -0.114,-5.014" fill="#27363d" stroke="#27363d" stroke-width=".003"/><polygon points="-0.391,-5.285 -0.091,-5.042 -0.114,-5.014" fill="#27363d" stroke="#27363d" stroke-width=".003"/><polygon points="0.850,-4.235 0.873,-4.263 1.150,-3.992" fill="#27363d" stroke="#27363d" stroke-width=".003"/><polygon points="0.873,-4.263 1.173,-4.020 1.150,-3.992" fill="#27363d" stroke="#27363d" stroke-width=".003"/><polygon points="2.114,-3.213 2.137,-3.241 2.414,-2.970" fill="#27363d" stroke="#27363d" stroke-width=".003"/><polygon points="2.137,-3.241 2.437,-2.998 2.414,-2.970" fill="#27363d" stroke="#27363d" stroke-width=".003"/><polygon points="3.378,-2.191 3.401,-2.219 3.678,-1.948" fill="#27363d" stroke="#27363d" stroke-width=".003"/><polygon points="3.401,-2.219 3.701,-1.976 3.678,-1.948" fill="#27363d" stroke="#27363d" stroke-width=".003"/><polygon points="4.642,-1.169 4.665,-1.197 4.943,-0.926" fill="#27363d" stroke="#27363d" stroke-width=".003"/><polygon points="4.665,-1.197 4.965,-0.954 4.943,-0.926" fill="#27363d" stroke="#27363d" stroke-width=".003"/><polygon points="5.906,-0.146 5.929,-0.174 6.207,0.096" fill="#27363d" stroke="#27363d" stroke-width=".003"/><polygon points="5.929,-0.174 6.229,0.068 6.207,0.096" fill="#27363d" stroke="#27363d" stroke-width=".003"/><polygon points="7.171,0.876 7.193,0.848 7.471,1.118" fill="#27363d" stroke="#27363d" stroke-width=".003"/><polygon points="7.193,0.848 7.493,1.090 7.471,1.118" fill="#27363d" stroke="#27363d" stroke-width=".003"/><polygon points="7.534,1.998 7.562,2.020 7.291,2.298" fill="#27363d" stroke="#27363d" stroke-width=".003"/><polygon points="7.562,2.020 7.319,2.321 7.291,2.298" fill="#27363d" stroke="#27363d" stroke-width=".003"/><polygon points="6.458,3.328 6.486,3.351 6.215,3.629" fill="#27363d" stroke="#27363d" stroke-width=".003"/><polygon points="6.486,3.351 6.244,3.651 6.215,3.629" fill="#27363d" stroke="#27363d" stroke-width=".003"/><polygon points="4.199,3.831 4.227,3.854 3.956,4.131" fill="#27363d" stroke="#27363d" stroke-width=".003"/><polygon points="4.227,3.854 3.984,4.154 3.956,4.131" fill="#27363d" stroke="#27363d" stroke-width=".003"/><polygon points="2.998,5.316 3.026,5.338 2.755,5.616" fill="#27363d" stroke="#27363d" stroke-width=".003"/><polygon points="3.026,5.338 2.783,5.639 2.755,5.616" fill="#27363d" stroke="#27363d" stroke-width=".003"/><polygon points="1.797,6.801 1.825,6.823 1.554,7.101" fill="#27363d" stroke="#27363d" stroke-width=".003"/><polygon points="1.825,6.823 1.582,7.123 1.554,7.101" fill="#27363d" stroke="#27363d" stroke-width=".003"/><polygon points="0.661,7.335 0.639,7.363 0.361,7.092" fill="#27363d" stroke="#27363d" stroke-width=".003"/><polygon points="0.639,7.363 0.338,7.120 0.361,7.092" fill="#27363d" stroke="#27363d" stroke-width=".003"/><polygon points="-0.518,6.382 -0.540,6.410 -0.818,6.139" fill="#27363d" stroke="#27363d" stroke-width=".003"/><polygon points="-0.540,6.410 -0.840,6.167 -0.818,6.139" fill="#27363d" stroke="#27363d" stroke-width=".003"/><polygon points="-1.696,5.429 -1.719,5.457 -1.997,5.186" fill="#27363d" stroke="#27363d" stroke-width=".003"/><polygon points="-1.719,5.457 -2.019,5.214 -1.997,5.186" fill="#27363d" stroke="#27363d" stroke-width=".003"/><polygon points="-2.875,4.476 -2.898,4.504 -3.175,4.233" fill="#27363d" stroke="#27363d" stroke-width=".003"/><polygon points="-2.898,4.504 -3.198,4.261 -3.175,4.233" fill="#27363d" stroke="#27363d" stroke-width=".003"/><polygon points="-4.188,3.414 -4.210,3.442 -4.488,3.171" fill="#27363d" stroke="#27363d" stroke-width=".003"/><polygon points="-4.210,3.442 -4.510,3.199 -4.488,3.171" fill="#27363d" stroke="#27363d" stroke-width=".003"/><polygon points="-5.634,2.244 -5.656,2.272 -5.934,2.002" fill="#27363d" stroke="#27363d" stroke-width=".003"/><polygon points="-5.656,2.272 -5.956,2.030 -5.934,2.002" fill="#27363d" stroke="#27363d" stroke-width=".003"/><polygon points="-7.080,1.075 -7.102,1.103 -7.380,0.832" fill="#27363d" stroke="#27363d" stroke-width=".003"/><polygon points="-7.102,1.103 -7.402,0.860 -7.380,0.832" fill="#27363d" stroke="#27363d" stroke-width=".003"/><polygon points="-7.590,-0.109 -7.562,-0.086 -7.347,-0.409" fill="#27363d" stroke="#27363d" stroke-width=".003"/><polygon points="-7.562,-0.086 -7.319,-0.387 -7.347,-0.409" fill="#27363d" stroke="#27363d" stroke-width=".003"/><polygon points="-6.571,-1.369 -6.543,-1.347 -6.328,-1.670" fill="#27363d" stroke="#27363d" stroke-width=".003"/><polygon points="-6.543,-1.347 -6.300,-1.647 -6.328,-1.670" fill="#27363d" stroke="#27363d" stroke-width=".003"/><polygon points="-5.210,-3.054 -5.182,-3.031 -4.967,-3.354" fill="#27363d" stroke="#27363d" stroke-width=".003"/><polygon points="-5.182,-3.031 -4.939,-3.331 -4.967,-3.354" fill="#27363d" stroke="#27363d" stroke-width=".003"/><polygon points="-5.182,-5.544 -5.154,-5.521 -4.939,-5.844" fill="#27363d" stroke="#27363d" stroke-width=".003"/><polygon points="-5.154,-5.521 -4.911,-5.821 -4.939,-5.844" fill="#27363d" stroke="#27363d" stroke-width=".003"/><polygon points="-4.093,-6.892 -4.065,-6.869 -3.850,-7.192" fill="#27363d" stroke="#27363d" stroke-width=".003"/><polygon points="-4.065,-6.869 -3.822,-7.169 -3.850,-7.192" fill="#27363d" stroke="#27363d" stroke-width=".003"/><polygon points="-2.920,-7.329 -2.942,-7.301 -2.619,-7.086" fill="#27363d" stroke="#27363d" stroke-width=".003"/><polygon points="-2.942,-7.301 -2.642,-7.058 -2.619,-7.086" fill="#27363d" stroke="#27363d" stroke-width=".003"/><polygon points="-1.655,-6.307 -1.678,-6.279 -1.355,-6.064" fill="#27363d" stroke="#27363d" stroke-width=".003"/><polygon points="-1.678,-6.279 -1.378,-6.036 -1.355,-6.064" fill="#27363d" stroke="#27363d" stroke-width=".003"/><polygon points="-0.391,-5.285 -0.414,-5.257 -0.091,-5.042" fill="#27363d" stroke="#27363d" stroke-width=".003"/><polygon points="-0.414,-5.257 -0.114,-5.014 -0.091,-5.042" fill="#27363d" stroke="#27363d" stroke-width=".003"/><polygon points="0.873,-4.263 0.850,-4.235 1.173,-4.020" fill="#27363d" stroke="#27363d" stroke-width=".003"/><polygon points="0.850,-4.235 1.150,-3.992 1.173,-4.020" fill="#27363d" stroke="#27363d" stroke-width=".003"/><polygon points="2.137,-3.241 2.114,-3.213 2.437,-2.998" fill="#27363d" stroke="#27363d" stroke-width=".003"/><polygon points="2.114,-3.213 2.414,-2.970 2.437,-2.998" fill="#27363d" stroke="#27363d" stroke-width=".003"/><polygon points="3.401,-2.219 3.378,-2.191 3.701,-1.976" fill="#27363d" stroke="#27363d" stroke-width=".003"/><polygon points="3.378,-2.191 3.678,-1.948 3.701,-1.976" fill="#27363d" stroke="#27363d" stroke-width=".003"/><polygon points="4.665,-1.197 4.642,-1.169 4.965,-0.954" fill="#27363d" stroke="#27363d" stroke-width=".003"/><polygon points="4.642,-1.169 4.943,-0.926 4.965,-0.954" fill="#27363d" stroke="#27363d" stroke-width=".003"/><polygon points="5.929,-0.174 5.906,-0.146 6.229,0.068" fill="#27363d" stroke="#27363d" stroke-width=".003"/><polygon points="5.906,-0.146 6.207,0.096 6.229,0.068" fill="#27363d" stroke="#27363d" stroke-width=".003"/><polygon points="7.193,0.848 7.171,0.876 7.493,1.090" fill="#27363d" stroke="#27363d" stroke-width=".003"/><polygon points="7.171,0.876 7.471,1.118 7.493,1.090" fill="#27363d" stroke="#27363d" stroke-width=".003"/><polygon points="7.562,2.020 7.534,1.998 7.319,2.321" fill="#27363d" stroke="#27363d" stroke-width=".003"/><polygon points="7.534,1.998 7.291,2.298 7.319,2.321" fill="#27363d" stroke="#27363d" stroke-width=".003"/><polygon points="6.486,3.351 6.458,3.328 6.244,3.651" fill="#27363d" stroke="#27363d" stroke-width=".003"/><polygon points="6.458,3.328 6.215,3.629 6.244,3.651" fill="#27363d" stroke="#27363d" stroke-width=".003"/><polygon points="4.227,3.854 4.199,3.831 3.984,4.154" fill="#27363d" stroke="#27363d" stroke-width=".003"/><polygon points="4.199,3.831 3.956,4.131 3.984,4.154" fill="#27363d" stroke="#27363d" stroke-width=".003"/><polygon points="3.026,5.338 2.998,5.316 2.783,5.639" fill="#27363d" stroke="#27363d" stroke-width=".003"/><polygon points="2.998,5.316 2.755,5.616 2.783,5.639" fill="#27363d" stroke="#27363d" stroke-width=".003"/><polygon points="1.825,6.823 1.797,6.801 1.582,7.123" fill="#27363d" stroke="#27363d" stroke-width=".003"/><polygon points="1.797,6.801 1.554,7.101 1.582,7.123" fill="#27363d" stroke="#27363d" stroke-width=".003"/><polygon points="0.639,7.363 0.661,7.335 0.338,7.120" fill="#27363d" stroke="#27363d" stroke-width=".003"/><polygon points="0.661,7.335 0.361,7.092 0.338,7.120" fill="#27363d" stroke="#27363d" stroke-width=".003"/><polygon points="-0.540,6.410 -0.518,6.382 -0.840,6.167" fill="#27363d" stroke="#27363d" stroke-width=".003"/><polygon points="-0.518,6.382 -0.818,6.139 -0.840,6.167" fill="#27363d" stroke="#27363d" stroke-width=".003"/><polygon points="-1.719,5.457 -1.696,5.429 -2.019,5.214" fill="#27363d" stroke="#27363d" stroke-width=".003"/><polygon points="-1.696,5.429 -1.997,5.186 -2.019,5.214" fill="#27363d" stroke="#27363d" stroke-width=".003"/><polygon points="-2.898,4.504 -2.875,4.476 -3.198,4.261" fill="#27363d" stroke="#27363d" stroke-width=".003"/><polygon points="-2.875,4.476 -3.175,4.233 -3.198,4.261" fill="#27363d" stroke="#27363d" stroke-width=".003"/><polygon points="-4.210,3.442 -4.188,3.414 -4.510,3.199" fill="#27363d" stroke="#27363d" stroke-width=".003"/><polygon points="-4.188,3.414 -4.488,3.171 -4.510,3.199" fill="#27363d" stroke="#27363d" stroke-width=".003"/><polygon points="-5.656,2.272 -5.634,2.244 -5.956,2.030" fill="#27363d" stroke="#27363d" stroke-width=".003"/><polygon points="-5.634,2.244 -5.934,2.002 -5.956,2.030" fill="#27363d" stroke="#27363d" stroke-width=".003"/><polygon points="-7.102,1.103 -7.080,1.075 -7.402,0.860" fill="#27363d" stroke="#27363d" stroke-width=".003"/><polygon points="-7.080,1.075 -7.380,0.832 -7.402,0.860" fill="#27363d" stroke="#27363d" stroke-width=".003"/><polygon points="-7.928,0.412 -8.000,0.353 -5.890,-2.109" fill="#dbd3be" stroke="#dbd3be" stroke-width=".003"/><polygon points="-8.000,0.353 -5.962,-2.168 -5.890,-2.109" fill="#dbd3be" stroke="#dbd3be" stroke-width=".003"/><polygon points="-5.890,-2.109 -5.962,-2.167 -5.722,-2.318" fill="#dbd3be" stroke="#dbd3be" stroke-width=".003"/><polygon points="-5.962,-2.167 -5.794,-2.377 -5.722,-2.318" fill="#dbd3be" stroke="#dbd3be" stroke-width=".003"/><polygon points="-5.722,-2.318 -5.794,-2.377 -4.355,-4.009" fill="#dbd3be" stroke="#dbd3be" stroke-width=".003"/><polygon points="-5.794,-2.377 -4.427,-4.067 -4.355,-4.009" fill="#dbd3be" stroke="#dbd3be" stroke-width=".003"/><polygon points="-4.362,-4.074 -4.420,-4.002 -5.562,-5.045" fill="#dbd3be" stroke="#dbd3be" stroke-width=".003"/><polygon points="-4.420,-4.002 -5.621,-4.973 -5.562,-5.045" fill="#dbd3be" stroke="#dbd3be" stroke-width=".003"/><polygon points="-5.555,-4.980 -5.627,-5.038 -3.377,-7.675" fill="#dbd3be" stroke="#dbd3be" stroke-width=".003"/><polygon points="-5.627,-5.038 -3.449,-7.733 -3.377,-7.675" fill="#dbd3be" stroke="#dbd3be" stroke-width=".003"/><polygon points="-3.442,-7.668 -3.384,-7.740 7.935,1.530" fill="#dbd3be" stroke="#dbd3be" stroke-width=".003"/><polygon points="-3.384,-7.740 7.993,1.458 7.935,1.530" fill="#dbd3be" stroke="#dbd3be" stroke-width=".003"/><polygon points="7.928,1.465 8.000,1.523 5.777,4.126" fill="#dbd3be" stroke="#dbd3be" stroke-width=".003"/><polygon points="8.000,1.523 5.849,4.184 5.777,4.126" fill="#dbd3be" stroke="#dbd3be" stroke-width=".003"/><polygon points="5.842,4.119 5.784,4.191 4.721,3.214" fill="#dbd3be" stroke="#dbd3be" stroke-width=".003"/><polygon points="5.784,4.191 4.663,3.286 4.721,3.214" fill="#dbd3be" stroke="#dbd3be" stroke-width=".003"/><polygon points="4.656,3.221 4.728,3.279 1.053,7.675" fill="#dbd3be" stroke="#dbd3be" stroke-width=".003"/><polygon points="4.728,3.279 1.125,7.733 1.053,7.675" fill="#dbd3be" stroke="#dbd3be" stroke-width=".003"/><polygon points="1.118,7.668 1.060,7.740 -3.597,3.856" fill="#dbd3be" stroke="#dbd3be" stroke-width=".003"/><polygon points="1.060,7.740 -3.655,3.928 -3.597,3.856" fill="#dbd3be" stroke="#dbd3be" stroke-width=".003"/><polygon points="-3.597,3.856 -3.655,3.928 -7.935,0.346" fill="#dbd3be" stroke="#dbd3be" stroke-width=".003"/><polygon points="-3.655,3.928 -7.993,0.418 -7.935,0.346" fill="#dbd3be" stroke="#dbd3be" stroke-width=".003"/><polygon points="-8.000,0.353 -7.928,0.412 -5.962,-2.168" fill="#dbd3be" stroke="#dbd3be" stroke-width=".003"/><polygon points="-7.928,0.412 -5.890,-2.109 -5.962,-2.168" fill="#dbd3be" stroke="#dbd3be" stroke-width=".003"/><polygon points="-5.962,-2.167 -5.890,-2.109 -5.794,-2.377" fill="#dbd3be" stroke="#dbd3be" stroke-width=".003"/><polygon points="-5.890,-2.109 -5.722,-2.318 -5.794,-2.377" fill="#dbd3be" stroke="#dbd3be" stroke-width=".003"/><polygon points="-5.794,-2.377 -5.722,-2.318 -4.427,-4.067" fill="#dbd3be" stroke="#dbd3be" stroke-width=".003"/><polygon points="-5.722,-2.318 -4.355,-4.009 -4.427,-4.067" fill="#dbd3be" stroke="#dbd3be" stroke-width=".003"/><polygon points="-4.420,-4.002 -4.362,-4.074 -5.621,-4.973" fill="#dbd3be" stroke="#dbd3be" stroke-width=".003"/><polygon points="-4.362,-4.074 -5.562,-5.045 -5.621,-4.973" fill="#dbd3be" stroke="#dbd3be" stroke-width=".003"/><polygon points="-5.627,-5.038 -5.555,-4.980 -3.449,-7.733" fill="#dbd3be" stroke="#dbd3be" stroke-width=".003"/><polygon points="-5.555,-4.980 -3.377,-7.675 -3.449,-7.733" fill="#dbd3be" stroke="#dbd3be" stroke-width=".003"/><polygon points="-3.384,-7.740 -3.442,-7.668 7.993,1.458" fill="#dbd3be" stroke="#dbd3be" stroke-width=".003"/><polygon points="-3.442,-7.668 7.935,1.530 7.993,1.458" fill="#dbd3be" stroke="#dbd3be" stroke-width=".003"/><polygon points="8.000,1.523 7.928,1.465 5.849,4.184" fill="#dbd3be" stroke="#dbd3be" stroke-width=".003"/><polygon points="7.928,1.465 5.777,4.126 5.849,4.184" fill="#dbd3be" stroke="#dbd3be" stroke-width=".003"/><polygon points="5.784,4.191 5.842,4.119 4.663,3.286" fill="#dbd3be" stroke="#dbd3be" stroke-width=".003"/><polygon points="5.842,4.119 4.721,3.214 4.663,3.286" fill="#dbd3be" stroke="#dbd3be" stroke-width=".003"/><polygon points="4.728,3.279 4.656,3.221 1.125,7.733" fill="#dbd3be" stroke="#dbd3be" stroke-width=".003"/><polygon points="4.656,3.221 1.053,7.675 1.125,7.733" fill="#dbd3be" stroke="#dbd3be" stroke-width=".003"/><polygon points="1.060,7.740 1.118,7.668 -3.655,3.928" fill="#dbd3be" stroke="#dbd3be" stroke-width=".003"/><polygon points="1.118,7.668 -3.597,3.856 -3.655,3.928" fill="#dbd3be" stroke="#dbd3be" stroke-width=".003"/><polygon points="-3.655,3.928 -3.597,3.856 -7.993,0.418" fill="#dbd3be" stroke="#dbd3be" stroke-width=".003"/><polygon points="-3.597,3.856 -7.935,0.346 -7.993,0.418" fill="#dbd3be" stroke="#dbd3be" stroke-width=".003"/><polygon points="-5.926,-2.138 -7.964,0.382 -3.626,3.892" fill="#dbd3be" stroke="#dbd3be" stroke-width=".003"/><polygon points="-3.626,3.892 1.089,7.704 4.692,3.250" fill="#dbd3be" stroke="#dbd3be" stroke-width=".003"/><polygon points="4.692,3.250 5.813,4.155 7.964,1.494" fill="#dbd3be" stroke="#dbd3be" stroke-width=".003"/><polygon points="7.964,1.494 -3.413,-7.704 -5.591,-5.009" fill="#dbd3be" stroke="#dbd3be" stroke-width=".003"/><polygon points="-4.391,-4.038 -5.758,-2.348 -5.926,-2.138" fill="#dbd3be" stroke="#dbd3be" stroke-width=".003"/><polygon points="-5.926,-2.138 -3.626,3.892 4.692,3.250" fill="#dbd3be" stroke="#dbd3be" stroke-width=".003"/><polygon points="4.692,3.250 7.964,1.494 -5.591,-5.009" fill="#dbd3be" stroke="#dbd3be" stroke-width=".003"/><polygon points="-4.391,-4.038 -5.926,-2.138 4.692,3.250" fill="#dbd3be" stroke="#dbd3be" stroke-width=".003"/><polygon points="4.692,3.250 -5.591,-5.009 -4.391,-4.038" fill="#dbd3be" stroke="#dbd3be" stroke-width=".003"/><polygon points="-3.467,-1.109 -5.458,-2.719 -4.391,-4.038" fill="#dbd3be" stroke="#dbd3be" stroke-width=".003"/><polygon points="-2.956,-6.652 -0.555,-4.711 -3.467,-1.109" fill="#dbd3be" stroke="#dbd3be" stroke-width=".003"/><polygon points="-4.391,-4.038 -4.802,-4.370 -2.956,-6.652" fill="#dbd3be" stroke="#dbd3be" stroke-width=".003"/><polygon points="-2.956,-6.652 -3.467,-1.109 -4.391,-4.038" fill="#dbd3be" stroke="#dbd3be" stroke-width=".003"/><polygon points="2.956,4.079 0.555,2.137 3.467,-1.464" fill="#dbd3be" stroke="#dbd3be" stroke-width=".003"/><polygon points="3.467,-1.464 5.868,0.477 2.956,4.079" fill="#dbd3be" stroke="#dbd3be" stroke-width=".003"/><polygon points="5.557,1.749 7.964,1.494 5.813,4.155" fill="#a65d42" stroke="#a65d42" stroke-width=".003"/><polygon points="5.557,1.749 5.813,4.155 4.692,3.250" fill="#a65d42" stroke="#a65d42" stroke-width=".003"/><polygon points="4.436,0.843 4.692,3.250 1.089,7.704" fill="#a65d42" stroke="#a65d42" stroke-width=".003"/><polygon points="-3.154,-5.267 -5.591,-5.009 -3.413,-7.704" fill="#a65d42" stroke="#a65d42" stroke-width=".003"/><polygon points="-3.154,-5.267 -3.413,-7.704 7.964,1.494" fill="#a65d42" stroke="#a65d42" stroke-width=".003"/><polygon points="-1.954,-4.295 -4.391,-4.038 -5.591,-5.009" fill="#a65d42" stroke="#a65d42" stroke-width=".003"/><polygon points="-3.402,-0.100 -7.964,0.383 -5.926,-2.139" fill="#a65d42" stroke="#a65d42" stroke-width=".003"/><polygon points="-3.402,-0.100 -5.926,-2.139 -5.758,-2.347" fill="#a65d42" stroke="#a65d42" stroke-width=".003"/><polygon points="7.964,1.494 5.557,1.749 4.436,0.843" fill="#a65d42" stroke="#a65d42" stroke-width=".003"/><polygon points="4.692,3.250 4.436,0.843 5.557,1.749" fill="#a65d42" stroke="#a65d42" stroke-width=".003"/><polygon points="-1.954,-4.295 7.964,1.494 4.436,0.843" fill="#a65d42" stroke="#a65d42" stroke-width=".003"/><polygon points="-5.591,-5.009 -3.154,-5.267 -1.954,-4.295" fill="#a65d42" stroke="#a65d42" stroke-width=".003"/><polygon points="-1.954,-4.295 -3.154,-5.267 7.964,1.494" fill="#a65d42" stroke="#a65d42" stroke-width=".003"/><polygon points="-3.025,-0.140 -5.758,-2.347 -4.391,-4.038" fill="#a65d42" stroke="#a65d42" stroke-width=".003"/><polygon points="-0.749,0.334 -3.626,3.891 -7.964,0.383" fill="#a65d42" stroke="#a65d42" stroke-width=".003"/><polygon points="0.409,1.270 1.089,7.704 -3.626,3.891" fill="#a65d42" stroke="#a65d42" stroke-width=".003"/><polygon points="1.089,7.704 0.409,1.270 4.436,0.843" fill="#a65d42" stroke="#a65d42" stroke-width=".003"/><polygon points="-4.391,-4.038 -1.954,-4.295 -1.530,-0.298" fill="#a65d42" stroke="#a65d42" stroke-width=".003"/><polygon points="-5.758,-2.347 -3.025,-0.140 -3.402,-0.100" fill="#a65d42" stroke="#a65d42" stroke-width=".003"/><polygon points="-0.749,0.334 -7.964,0.383 -3.402,-0.100" fill="#a65d42" stroke="#a65d42" stroke-width=".003"/><polygon points="4.436,0.843 -0.749,0.334 -1.954,-4.295" fill="#a65d42" stroke="#a65d42" stroke-width=".003"/><polygon points="-1.530,-0.298 -3.025,-0.140 -4.391,-4.038" fill="#a65d42" stroke="#a65d42" stroke-width=".003"/><polygon points="-3.626,3.891 -0.749,0.334 0.409,1.270" fill="#a65d42" stroke="#a65d42" stroke-width=".003"/><polygon points="4.436,0.843 0.409,1.270 -0.749,0.334" fill="#a65d42" stroke="#a65d42" stroke-width=".003"/><polygon points="-0.749,0.334 -1.530,-0.298 -1.954,-4.295" fill="#a65d42" stroke="#a65d42" stroke-width=".003"/><polygon points="-3.402,-0.100 -3.025,-0.140 -1.530,-0.298" fill="#a65d42" stroke="#a65d42" stroke-width=".003"/><polygon points="-3.402,-0.100 -1.530,-0.298 -0.749,0.334" fill="#a65d42" stroke="#a65d42" stroke-width=".003"/><polygon points="-4.391,-4.038 -5.458,-2.719 -3.467,-1.109" fill="#dbd3be" stroke="#dbd3be" stroke-width=".003"/><polygon points="-3.467,-1.109 -0.555,-4.711 -2.956,-6.652" fill="#dbd3be" stroke="#dbd3be" stroke-width=".003"/><polygon points="-2.956,-6.652 -4.802,-4.370 -4.391,-4.038" fill="#dbd3be" stroke="#dbd3be" stroke-width=".003"/><polygon points="-4.391,-4.038 -3.467,-1.109 -2.956,-6.652" fill="#dbd3be" stroke="#dbd3be" stroke-width=".003"/><polygon points="3.467,-1.464 0.555,2.137 2.956,4.079" fill="#dbd3be" stroke="#dbd3be" stroke-width=".003"/><polygon points="2.956,4.079 5.868,0.477 3.467,-1.464" fill="#dbd3be" stroke="#dbd3be" stroke-width=".003"/><polygon points="-3.658,-2.909 -3.467,-1.109 -5.458,-2.719" fill="#a65d42" stroke="#a65d42" stroke-width=".003"/><polygon points="-3.658,-2.909 -5.458,-2.719 -4.391,-4.038" fill="#a65d42" stroke="#a65d42" stroke-width=".003"/><polygon points="-0.555,-4.711 -3.467,-1.109 -3.658,-2.909" fill="#a65d42" stroke="#a65d42" stroke-width=".003"/><polygon points="-2.591,-4.228 -4.391,-4.038 -4.802,-4.370" fill="#a65d42" stroke="#a65d42" stroke-width=".003"/><polygon points="-2.737,-4.588 -4.802,-4.370 -2.956,-6.652" fill="#a65d42" stroke="#a65d42" stroke-width=".003"/><polygon points="-2.737,-4.588 -2.956,-6.652 -0.555,-4.711" fill="#a65d42" stroke="#a65d42" stroke-width=".003"/><polygon points="2.726,1.908 2.956,4.079 0.555,2.137" fill="#a65d42" stroke="#a65d42" stroke-width=".003"/><polygon points="2.726,1.908 0.555,2.137 3.467,-1.464" fill="#a65d42" stroke="#a65d42" stroke-width=".003"/><polygon points="3.697,0.707 3.467,-1.464 5.868,0.477" fill="#a65d42" stroke="#a65d42" stroke-width=".003"/><polygon points="3.697,0.707 5.868,0.477 2.956,4.079" fill="#a65d42" stroke="#a65d42" stroke-width=".003"/><polygon points="-4.391,-4.038 -2.591,-4.228 -3.658,-2.909" fill="#a65d42" stroke="#a65d42" stroke-width=".003"/><polygon points="-0.555,-4.711 -3.658,-2.909 -2.591,-4.228" fill="#a65d42" stroke="#a65d42" stroke-width=".003"/><polygon points="-2.619,-4.492 -2.591,-4.228 -4.802,-4.370" fill="#a65d42" stroke="#a65d42" stroke-width=".003"/><polygon points="-2.591,-4.228 -2.619,-4.492 -0.555,-4.711" fill="#a65d42" stroke="#a65d42" stroke-width=".003"/><polygon points="-4.802,-4.370 -2.737,-4.588 -2.619,-4.492" fill="#a65d42" stroke="#a65d42" stroke-width=".003"/><polygon points="-0.555,-4.711 -2.619,-4.492 -2.737,-4.588" fill="#a65d42" stroke="#a65d42" stroke-width=".003"/><polygon points="3.467,-1.464 3.697,0.707 2.726,1.908" fill="#a65d42" stroke="#a65d42" stroke-width=".003"/><polygon points="2.956,4.079 2.726,1.908 3.697,0.707" fill="#a65d42" stroke="#a65d42" stroke-width=".003"/></svg>