<svg xmlns="http://www.w3.org/2000/svg" viewBox="-8.7 -8.52415745167326 17.4 17.04831490334652" role="img" aria-label="gaudi-house exterior"><rect x="-20" y="-20" width="40" height="40" fill="#08121c"/><polygon points="6.669,4.904 1.941,7.689 0.454,5.156" fill="#dba998" stroke="#dba998" stroke-width=".003"/><polygon points="5.632,3.038 6.669,4.904 0.454,5.156" fill="#dba998" stroke="#dba998" stroke-width=".003"/><polygon points="0.454,5.156 -2.512,6.771 -4.529,-4.389" fill="#dba998" stroke="#dba998" stroke-width=".003"/><polygon points="5.632,3.038 0.454,5.156 -4.529,-4.389" fill="#dba998" stroke="#dba998" stroke-width=".003"/><polygon points="5.915,-1.691 7.866,1.558 5.632,3.038" fill="#dba998" stroke="#dba998" stroke-width=".003"/><polygon points="-2.512,6.771 -7.865,-2.426 -4.529,-4.389" fill="#dba998" stroke="#dba998" stroke-width=".003"/><polygon points="3.065,-7.513 5.915,-1.691 5.632,3.038" fill="#dba998" stroke="#dba998" stroke-width=".003"/><polygon points="5.632,3.038 -4.529,-4.389 2.615,-7.513" fill="#dba998" stroke="#dba998" stroke-width=".003"/><polygon points="3.065,-7.513 6.307,-1.933 5.915,-1.691" fill="#dba998" stroke="#dba998" stroke-width=".003"/><polygon points="2.615,-7.513 3.065,-7.513 5.632,3.038" fill="#dba998" stroke="#dba998" stroke-width=".003"/><polygon points="-4.529,-4.389 -4.775,-4.786 0.149,-7.668" fill="#dba998" stroke="#dba998" stroke-width=".003"/><polygon points="-4.529,-4.389 0.149,-7.668 2.615,-7.513" fill="#dba998" stroke="#dba998" stroke-width=".003"/><polygon points="0.149,-7.668 0.700,-7.668 2.615,-7.513" fill="#dba998" stroke="#dba998" stroke-width=".003"/><polygon points="4.306,-5.256 4.411,-5.317 4.960,-4.129" fill="#27363d" stroke="#27363d" stroke-width=".003"/><polygon points="4.411,-5.317 5.066,-4.190 4.960,-4.129" fill="#27363d" stroke="#27363d" stroke-width=".003"/><polygon points="-3.470,5.004 -3.575,5.065 -4.126,3.878" fill="#27363d" stroke="#27363d" stroke-width=".003"/><polygon points="-3.575,5.065 -4.231,3.939 -4.126,3.878" fill="#27363d" stroke="#27363d" stroke-width=".003"/><polygon points="-6.146,0.406 -6.252,0.467 -6.802,-0.721" fill="#27363d" stroke="#27363d" stroke-width=".003"/><polygon points="-6.252,0.467 -6.907,-0.660 -6.802,-0.721" fill="#27363d" stroke="#27363d" stroke-width=".003"/><polygon points="4.411,-5.317 4.306,-5.256 5.066,-4.190" fill="#27363d" stroke="#27363d" stroke-width=".003"/><polygon points="4.306,-5.256 4.960,-4.129 5.066,-4.190" fill="#27363d" stroke="#27363d" stroke-width=".003"/><polygon points="-3.575,5.065 -3.470,5.004 -4.231,3.939" fill="#27363d" stroke="#27363d" stroke-width=".003"/><polygon points="-3.470,5.004 -4.126,3.878 -4.231,3.939" fill="#27363d" stroke="#27363d" stroke-width=".003"/><polygon points="-6.252,0.467 -6.146,0.406 -6.907,-0.660" fill="#27363d" stroke="#27363d" stroke-width=".003"/><polygon points="-6.146,0.406 -6.802,-0.721 -6.907,-0.660" fill="#27363d" stroke="#27363d" stroke-width=".003"/><polygon points="-7.786,-2.291 -7.944,-2.561 -4.449,-4.255" fill="#c5b598" stroke="#c5b598" stroke-width=".003"/><polygon points="-7.944,-2.561 -4.608,-4.524 -4.449,-4.255" fill="#c5b598" stroke="#c5b598" stroke-width=".003"/><polygon points="-4.696,-4.651 -4.854,-4.921 0.228,-7.533" fill="#c5b598" stroke="#c5b598" stroke-width=".003"/><polygon points="-4.854,-4.921 0.070,-7.803 0.228,-7.533" fill="#c5b598" stroke="#c5b598" stroke-width=".003"/><polygon points="0.149,-7.511 0.149,-7.824 0.700,-7.511" fill="#c5b598" stroke="#c5b598" stroke-width=".003"/><polygon points="0.149,-7.824 0.700,-7.824 0.700,-7.511" fill="#c5b598" stroke="#c5b598" stroke-width=".003"/><polygon points="0.688,-7.512 0.713,-7.824 2.602,-7.357" fill="#c5b598" stroke="#c5b598" stroke-width=".003"/><polygon points="0.713,-7.824 2.628,-7.669 2.602,-7.357" fill="#c5b598" stroke="#c5b598" stroke-width=".003"/><polygon points="2.930,-7.434 3.200,-7.592 6.171,-1.854" fill="#c5b598" stroke="#c5b598" stroke-width=".003"/><polygon points="3.200,-7.592 6.442,-2.012 6.171,-1.854" fill="#c5b598" stroke="#c5b598" stroke-width=".003"/><polygon points="5.781,-1.611 6.049,-1.772 7.732,1.639" fill="#c5b598" stroke="#c5b598" stroke-width=".003"/><polygon points="6.049,-1.772 8.000,1.478 7.732,1.639" fill="#c5b598" stroke="#c5b598" stroke-width=".003"/><polygon points="7.780,1.428 7.952,1.689 5.546,2.907" fill="#c5b598" stroke="#c5b598" stroke-width=".003"/><polygon points="7.952,1.689 5.719,3.168 5.546,2.907" fill="#c5b598" stroke="#c5b598" stroke-width=".003"/><polygon points="5.495,3.114 5.769,2.962 6.533,4.980" fill="#c5b598" stroke="#c5b598" stroke-width=".003"/><polygon points="5.769,2.962 6.806,4.828 6.533,4.980" fill="#c5b598" stroke="#c5b598" stroke-width=".003"/><polygon points="6.590,4.769 6.749,5.039 1.861,7.555" fill="#c5b598" stroke="#c5b598" stroke-width=".003"/><polygon points="6.749,5.039 2.020,7.824 1.861,7.555" fill="#c5b598" stroke="#c5b598" stroke-width=".003"/><polygon points="2.075,7.610 1.806,7.769 0.589,5.077" fill="#c5b598" stroke="#c5b598" stroke-width=".003"/><polygon points="1.806,7.769 0.319,5.235 0.589,5.077" fill="#c5b598" stroke="#c5b598" stroke-width=".003"/><polygon points="0.379,5.018 0.529,5.293 -2.587,6.633" fill="#c5b598" stroke="#c5b598" stroke-width=".003"/><polygon points="0.529,5.293 -2.438,6.908 -2.587,6.633" fill="#c5b598" stroke="#c5b598" stroke-width=".003"/><polygon points="-2.377,6.692 -2.648,6.849 -7.730,-2.505" fill="#c5b598" stroke="#c5b598" stroke-width=".003"/><polygon points="-2.648,6.849 -8.000,-2.348 -7.730,-2.505" fill="#c5b598" stroke="#c5b598" stroke-width=".003"/><polygon points="-7.944,-2.561 -7.786,-2.291 -4.608,-4.524" fill="#c5b598" stroke="#c5b598" stroke-width=".003"/><polygon points="-7.786,-2.291 -4.449,-4.255 -4.608,-4.524" fill="#c5b598" stroke="#c5b598" stroke-width=".003"/><polygon points="-4.854,-4.921 -4.696,-4.651 0.070,-7.803" fill="#c5b598" stroke="#c5b598" stroke-width=".003"/><polygon points="-4.696,-4.651 0.228,-7.533 0.070,-7.803" fill="#c5b598" stroke="#c5b598" stroke-width=".003"/><polygon points="0.149,-7.824 0.149,-7.511 0.700,-7.824" fill="#c5b598" stroke="#c5b598" stroke-width=".003"/><polygon points="0.149,-7.511 0.700,-7.511 0.700,-7.824" fill="#c5b598" stroke="#c5b598" stroke-width=".003"/><polygon points="0.713,-7.824 0.688,-7.512 2.628,-7.669" fill="#c5b598" stroke="#c5b598" stroke-width=".003"/><polygon points="0.688,-7.512 2.602,-7.357 2.628,-7.669" fill="#c5b598" stroke="#c5b598" stroke-width=".003"/><polygon points="3.200,-7.592 2.930,-7.434 6.442,-2.012" fill="#c5b598" stroke="#c5b598" stroke-width=".003"/><polygon points="2.930,-7.434 6.171,-1.854 6.442,-2.012" fill="#c5b598" stroke="#c5b598" stroke-width=".003"/><polygon points="6.049,-1.772 5.781,-1.611 8.000,1.478" fill="#c5b598" stroke="#c5b598" stroke-width=".003"/><polygon points="5.781,-1.611 7.732,1.639 8.000,1.478" fill="#c5b598" stroke="#c5b598" stroke-width=".003"/><polygon points="7.952,1.689 7.780,1.428 5.719,3.168" fill="#c5b598" stroke="#c5b598" stroke-width=".003"/><polygon points="7.780,1.428 5.546,2.907 5.719,3.168" fill="#c5b598" stroke="#c5b598" stroke-width=".003"/><polygon points="5.769,2.962 5.495,3.114 6.806,4.828" fill="#c5b598" stroke="#c5b598" stroke-width=".003"/><polygon points="5.495,3.114 6.533,4.980 6.806,4.828" fill="#c5b598" stroke="#c5b598" stroke-width=".003"/><polygon points="6.749,5.039 6.590,4.769 2.020,7.824" fill="#c5b598" stroke="#c5b598" stroke-width=".003"/><polygon points="6.590,4.769 1.861,7.555 2.020,7.824" fill="#c5b598" stroke="#c5b598" stroke-width=".003"/><polygon points="1.806,7.769 2.075,7.610 0.319,5.235" fill="#c5b598" stroke="#c5b598" stroke-width=".003"/><polygon points="2.075,7.610 0.589,5.077 0.319,5.235" fill="#c5b598" stroke="#c5b598" stroke-width=".003"/><polygon points="0.529,5.293 0.379,5.018 -2.438,6.908" fill="#c5b598" stroke="#c5b598" stroke-width=".003"/><polygon points="0.379,5.018 -2.587,6.633 -2.438,6.908" fill="#c5b598" stroke="#c5b598" stroke-width=".003"/><polygon points="-2.648,6.849 -2.377,6.692 -8.000,-2.348" fill="#c5b598" stroke="#c5b598" stroke-width=".003"/><polygon points="-2.377,6.692 -7.730,-2.505 -8.000,-2.348" fill="#c5b598" stroke="#c5b598" stroke-width=".003"/><polygon points="-4.529,-4.389 -7.865,-2.426 -2.512,6.771" fill="#dba998" stroke="#dba998" stroke-width=".003"/><polygon points="0.454,5.156 1.941,7.689 6.669,4.904" fill="#dba998" stroke="#dba998" stroke-width=".003"/><polygon points="5.632,3.038 7.866,1.558 5.915,-1.691" fill="#dba998" stroke="#dba998" stroke-width=".003"/><polygon points="5.915,-1.691 6.307,-1.933 3.065,-7.513" fill="#dba998" stroke="#dba998" stroke-width=".003"/><polygon points="2.615,-7.513 0.700,-7.668 0.149,-7.668" fill="#dba998" stroke="#dba998" stroke-width=".003"/><polygon points="0.149,-7.668 -4.775,-4.786 -4.529,-4.389" fill="#dba998" stroke="#dba998" stroke-width=".003"/><polygon points="-4.529,-4.389 -2.512,6.771 0.454,5.156" fill="#dba998" stroke="#dba998" stroke-width=".003"/><polygon points="0.454,5.156 6.669,4.904 5.632,3.038" fill="#dba998" stroke="#dba998" stroke-width=".003"/><polygon points="5.632,3.038 5.915,-1.691 3.065,-7.513" fill="#dba998" stroke="#dba998" stroke-width=".003"/><polygon points="2.615,-7.513 0.149,-7.668 -4.529,-4.389" fill="#dba998" stroke="#dba998" stroke-width=".003"/><polygon points="-4.529,-4.389 0.454,5.156 5.632,3.038" fill="#dba998" stroke="#dba998" stroke-width=".003"/><polygon points="5.632,3.038 3.065,-7.513 2.615,-7.513" fill="#dba998" stroke="#dba998" stroke-width=".003"/><polygon points="2.615,-7.513 -4.529,-4.389 5.632,3.038" fill="#dba998" stroke="#dba998" stroke-width=".003"/><polygon points="5.784,0.630 4.610,1.345 -0.097,4.208" fill="#dba998" stroke="#dba998" stroke-width=".003"/><polygon points="-0.649,2.100 4.769,-0.985 5.784,0.630" fill="#dba998" stroke="#dba998" stroke-width=".003"/><polygon points="-1.461,2.100 -0.873,1.723 -0.649,2.100" fill="#dba998" stroke="#dba998" stroke-width=".003"/><polygon points="-0.649,2.100 5.784,0.630 -0.097,4.208" fill="#dba998" stroke="#dba998" stroke-width=".003"/><polygon points="-0.097,4.208 -1.461,2.100 -0.649,2.100" fill="#dba998" stroke="#dba998" stroke-width=".003"/><polygon points="2.581,-6.673 2.615,-7.513 3.065,-7.513" fill="#a65d42" stroke="#a65d42" stroke-width=".003"/><polygon points="2.581,-6.673 3.065,-7.513 6.306,-1.933" fill="#a65d42" stroke="#a65d42" stroke-width=".003"/><polygon points="0.629,-5.900 0.150,-7.668 0.700,-7.668" fill="#a65d42" stroke="#a65d42" stroke-width=".003"/><polygon points="0.629,-5.900 0.700,-7.668 2.615,-7.513" fill="#a65d42" stroke="#a65d42" stroke-width=".003"/><polygon points="2.928,3.886 6.669,4.904 1.941,7.690" fill="#a65d42" stroke="#a65d42" stroke-width=".003"/><polygon points="2.928,3.886 1.941,7.690 0.454,5.155" fill="#a65d42" stroke="#a65d42" stroke-width=".003"/><polygon points="1.927,2.133 5.632,3.037 6.669,4.904" fill="#a65d42" stroke="#a65d42" stroke-width=".003"/><polygon points="0.827,-3.074 -4.529,-4.389 -4.775,-4.786" fill="#a65d42" stroke="#a65d42" stroke-width=".003"/><polygon points="0.655,-2.970 5.915,-1.691 7.866,1.558" fill="#a65d42" stroke="#a65d42" stroke-width=".003"/><polygon points="0.879,-3.293 6.306,-1.933 5.915,-1.691" fill="#a65d42" stroke="#a65d42" stroke-width=".003"/><polygon points="0.811,-3.406 -4.775,-4.786 0.150,-7.668" fill="#a65d42" stroke="#a65d42" stroke-width=".003"/><polygon points="1.974,-0.322 0.454,5.155 -2.512,6.770" fill="#a65d42" stroke="#a65d42" stroke-width=".003"/><polygon points="2.349,0.309 7.866,1.558 5.632,3.037" fill="#a65d42" stroke="#a65d42" stroke-width=".003"/><polygon points="2.615,-7.513 2.581,-6.673 1.018,-4.194" fill="#a65d42" stroke="#a65d42" stroke-width=".003"/><polygon points="2.581,-6.673 6.306,-1.933 0.811,-3.406" fill="#a65d42" stroke="#a65d42" stroke-width=".003"/><polygon points="0.150,-7.668 0.629,-5.900 1.018,-4.194" fill="#a65d42" stroke="#a65d42" stroke-width=".003"/><polygon points="1.018,-4.194 0.629,-5.900 2.615,-7.513" fill="#a65d42" stroke="#a65d42" stroke-width=".003"/><polygon points="-0.482,-0.495 -2.512,6.770 -7.865,-2.426" fill="#a65d42" stroke="#a65d42" stroke-width=".003"/><polygon points="-0.482,-0.495 -7.865,-2.426 -4.529,-4.389" fill="#a65d42" stroke="#a65d42" stroke-width=".003"/><polygon points="6.669,4.904 2.928,3.886 1.927,2.133" fill="#a65d42" stroke="#a65d42" stroke-width=".003"/><polygon points="1.927,2.133 2.928,3.886 0.454,5.155" fill="#a65d42" stroke="#a65d42" stroke-width=".003"/><polygon points="5.632,3.037 1.927,2.133 2.349,0.309" fill="#a65d42" stroke="#a65d42" stroke-width=".003"/><polygon points="0.454,5.155 2.349,0.309 1.927,2.133" fill="#a65d42" stroke="#a65d42" stroke-width=".003"/><polygon points="1.018,-4.194 0.811,-3.406 0.150,-7.668" fill="#a65d42" stroke="#a65d42" stroke-width=".003"/><polygon points="-4.529,-4.389 0.827,-3.074 0.655,-2.970" fill="#a65d42" stroke="#a65d42" stroke-width=".003"/><polygon points="5.915,-1.691 0.655,-2.970 0.827,-3.074" fill="#a65d42" stroke="#a65d42" stroke-width=".003"/><polygon points="0.879,-3.293 0.827,-3.074 -4.775,-4.786" fill="#a65d42" stroke="#a65d42" stroke-width=".003"/><polygon points="0.827,-3.074 0.879,-3.293 5.915,-1.691" fill="#a65d42" stroke="#a65d42" stroke-width=".003"/><polygon points="0.655,-2.970 7.866,1.558 1.974,-0.322" fill="#a65d42" stroke="#a65d42" stroke-width=".003"/><polygon points="-4.775,-4.786 0.811,-3.406 0.879,-3.293" fill="#a65d42" stroke="#a65d42" stroke-width=".003"/><polygon points="6.306,-1.933 0.879,-3.293 0.811,-3.406" fill="#a65d42" stroke="#a65d42" stroke-width=".003"/><polygon points="7.866,1.558 2.349,0.309 1.974,-0.322" fill="#a65d42" stroke="#a65d42" stroke-width=".003"/><polygon points="0.454,5.155 1.974,-0.322 2.349,0.309" fill="#a65d42" stroke="#a65d42" stroke-width=".003"/><polygon points="0.811,-3.406 1.018,-4.194 2.581,-6.673" fill="#a65d42" stroke="#a65d42" stroke-width=".003"/><polygon points="-0.482,-0.495 -4.529,-4.389 0.655,-2.970" fill="#a65d42" stroke="#a65d42" stroke-width=".003"/><polygon points="0.110,-0.830 1.974,-0.322 -2.512,6.770" fill="#a65d42" stroke="#a65d42" stroke-width=".003"/><polygon points="-2.512,6.770 -0.482,-0.495 0.110,-0.830" fill="#a65d42" stroke="#a65d42" stroke-width=".003"/><polygon points="1.974,-0.322 0.110,-0.830 0.655,-2.970" fill="#a65d42" stroke="#a65d42" stroke-width=".003"/><polygon points="0.655,-2.970 0.110,-0.830 -0.482,-0.495" fill="#a65d42" stroke="#a65d42" stroke-width=".003"/><polygon points="-0.097,4.208 4.610,1.345 5.784,0.630" fill="#dba998" stroke="#dba998" stroke-width=".003"/><polygon points="5.784,0.630 4.769,-0.985 -0.649,2.100" fill="#dba998" stroke="#dba998" stroke-width=".003"/><polygon points="-0.649,2.100 -0.873,1.723 -1.461,2.100" fill="#dba998" stroke="#dba998" stroke-width=".003"/><polygon points="-0.097,4.208 5.784,0.630 -0.649,2.100" fill="#dba998" stroke="#dba998" stroke-width=".003"/><polygon points="-0.649,2.100 -1.461,2.100 -0.097,4.208" fill="#dba998" stroke="#dba998" stroke-width=".003"/><polygon points="4.193,2.784 2.162,3.957 2.162,1.611" fill="#466964" stroke="#466964" stroke-width=".003"/><polygon points="4.193,0.439 4.193,2.784 2.162,1.611" fill="#466964" stroke="#466964" stroke-width=".003"/><polygon points="2.162,-0.734 4.193,0.439 2.162,1.611" fill="#466964" stroke="#466964" stroke-width=".003"/><polygon points="0.130,0.439 2.162,-0.734 2.162,1.611" fill="#466964" stroke="#466964" stroke-width=".003"/><polygon points="0.130,2.784 0.130,0.439 2.162,1.611" fill="#466964" stroke="#466964" stroke-width=".003"/><polygon points="2.162,3.957 0.130,2.784 2.162,1.611" fill="#466964" stroke="#466964" stroke-width=".003"/><polygon points="2.162,3.957 4.193,2.784 2.237,1.655" fill="#466964" stroke="#466964" stroke-width=".003"/><polygon points="4.193,2.784 4.193,0.439 2.237,1.568" fill="#466964" stroke="#466964" stroke-width=".003"/><polygon points="4.193,0.439 2.162,-0.734 2.162,1.524" fill="#466964" stroke="#466964" stroke-width=".003"/><polygon points="2.162,-0.734 0.130,0.439 2.087,1.568" fill="#466964" stroke="#466964" stroke-width=".003"/><polygon points="0.130,0.439 0.130,2.784 2.087,1.655" fill="#466964" stroke="#466964" stroke-width=".003"/><polygon points="0.130,2.784 2.162,3.957 2.162,1.698" fill="#466964" stroke="#466964" stroke-width=".003"/><polygon points="2.162,1.698 2.162,3.957 2.237,1.655" fill="#466964" stroke="#466964" stroke-width=".003"/><polygon points="2.237,1.655 4.193,2.784 2.237,1.568" fill="#466964" stroke="#466964" stroke-width=".003"/><polygon points="2.237,1.568 4.193,0.439 2.162,1.524" fill="#466964" stroke="#466964" stroke-width=".003"/><polygon points="2.162,1.524 2.162,-0.734 2.087,1.568" fill="#466964" stroke="#466964" stroke-width=".003"/><polygon points="2.087,1.568 0.130,0.439 2.087,1.655" fill="#466964" stroke="#466964" stroke-width=".003"/><polygon points="2.087,1.655 0.130,2.784 2.162,1.698" fill="#466964" stroke="#466964" stroke-width=".003"/><polygon points="2.162,1.698 2.237,1.655 2.162,1.611" fill="#466964" stroke="#466964" stroke-width=".003"/><polygon points="2.237,1.655 2.237,1.568 2.162,1.611" fill="#466964" stroke="#466964" stroke-width=".003"/><polygon points="2.237,1.568 2.162,1.524 2.162,1.611" fill="#466964" stroke="#466964" stroke-width=".003"/><polygon points="2.162,1.524 2.087,1.568 2.162,1.611" fill="#466964" stroke="#466964" stroke-width=".003"/><polygon points="2.087,1.568 2.087,1.655 2.162,1.611" fill="#466964" stroke="#466964" stroke-width=".003"/><polygon points="2.087,1.655 2.162,1.698 2.162,1.611" fill="#466964" stroke="#466964" stroke-width=".003"/></svg>